<?xml version="1.0" encoding="UTF-8"?>
<svg id="Calque_1" data-name="Calque 1" xmlns="http://www.w3.org/2000/svg" viewBox="0 0 98 98">
  <defs>
    <style>
      .cls-1 {
        fill: #606060;
      }

      .cls-1, .cls-2 {
        stroke-width: 0px;
      }

      .cls-2 {
        fill: #edeff2;
      }
    </style>
  </defs>
  <g id="Calque_2" data-name="Calque 2">
    <circle class="cls-2" cx="49" cy="49" r="49"/>
  </g>
  <path class="cls-1" d="M21.94,22.87c-1.17-.39-2.44.24-2.83,1.41s.24,2.44,1.41,2.83l.79.26c2.02.67,3.35,1.12,4.33,1.58.93.43,1.33.78,1.59,1.14.26.36.46.85.58,1.87.12,1.08.13,2.48.13,4.61v7.97c0,4.08,0,7.37.35,9.95.36,2.68,1.13,4.94,2.93,6.74,1.8,1.8,4.06,2.57,6.74,2.93,2.59.35,5.87.35,9.95.35h21.04c1.24,0,2.24-1,2.24-2.24s-1-2.24-2.24-2.24h-20.88c-4.28,0-7.27,0-9.52-.31-2.19-.29-3.35-.83-4.17-1.66-.7-.7-1.2-1.64-1.51-3.25h30.18c2.86,0,4.29,0,5.41-.74,1.12-.74,1.68-2.05,2.81-4.68l1.28-2.98c2.41-5.63,3.62-8.45,2.3-10.46-1.33-2.01-4.39-2.01-10.52-2.01h-31.93c-.02-.92-.06-1.75-.14-2.48-.17-1.45-.52-2.77-1.39-3.98-.87-1.2-2.01-1.97-3.33-2.58-1.24-.58-2.82-1.1-4.69-1.73l-.91-.3h0Z"/>
  <path class="cls-1" d="M37.64,69.73c2.47,0,4.47,2,4.47,4.47s-2,4.47-4.47,4.47-4.47-2-4.47-4.47,2-4.47,4.47-4.47Z"/>
  <path class="cls-1" d="M64.48,69.73c2.47,0,4.47,2,4.47,4.47s-2,4.47-4.47,4.47-4.47-2-4.47-4.47,2-4.47,4.47-4.47Z"/>
</svg>